# xmcd
#
# Track frame offsets: 
#        150
#        13082
#        27020
#        45312
#        57577
#        69945
#        93535
#        114462
#        132002
#        144552
#        156785
#        170035
#        187105
#        201330
#        220495
#        231837
#        249082
#        261610
#        275425
#        289065
#        305232
#        323867
#
# Disc length: 4559 seconds
#
# Revision: 3
# Processed by: cddbd v1.5.2PL0 Copyright (c) Steve Scherf et al.
# Submitted via: ExactAudioCopyFreeDBPlugin 1.0
#
DISCID=5111cd16
DTITLE=Various  - The Blue Horizon Story Vol. 1 - The CBS Years 2 (Dis
DTITLE=c 3) 
DYEAR=1997
DGENRE=Blues
TTITLE0=Magic Sam - Everything Gonna Alright
TTITLE1=Chicken Shack - Hideaway
TTITLE2=Edwards, David 'Honeyboy' - My Baby's Gone
TTITLE3=Coyne' Clague - Mandy Lee
TTITLE4=Smith, Gordon - Too Long
TTITLE5=Callicott, Mississippi Joe - You Don't Know My Mind
TTITLE6=Lewis, Furry - Judge Harsh Blues
TTITLE7=White, Bukka - Drifting Blues
TTITLE8=Johnson, Larry - Southern Train
TTITLE9=Chicken Shack - Tears In The Wind
TTITLE10=Bennett, Duster - I'm Gonna Wind Up Ending Up Or I'm Gonna En
TTITLE10=d UpWinding Up With You
TTITLE11=Harmonica Slim - She Want's To Rock'n Roll
TTITLE12=Young, Johnny - Moaning And Groaning
TTITLE13=Smith, George - Someday You're Gonna Learn
TTITLE14=Top Topham - Ridin' The Blinds
TTITLE15=Bacon Fat - Boom Boom
TTITLE16=Jellybread - Rockin' Pneumonia And The Boogie Woogie Flu
TTITLE17=Perfect, Christine - Crazy' Bout You Babe
TTITLE18=Key Largo - Voodoo Rhythm
TTITLE19=Bennett, Duster - I Want You To Love Me
TTITLE20=Velez, Martha - I'm Gonna Leave You
TTITLE21=Bacon Fat - Blues Feeling
EXTD=
EXTT0=
EXTT1=
EXTT2=
EXTT3=
EXTT4=
EXTT5=
EXTT6=
EXTT7=
EXTT8=
EXTT9=
EXTT10=
EXTT11=
EXTT12=
EXTT13=
EXTT14=
EXTT15=
EXTT16=
EXTT17=
EXTT18=
EXTT19=
EXTT20=
EXTT21=
PLAYORDER=
